<?xml version="1.0" standalone="no"?>
<!DOCTYPE svg PUBLIC "-//W3C//DTD SVG 20010904//EN"
 "http://www.w3.org/TR/2001/REC-SVG-20010904/DTD/svg10.dtd">
<svg version="1.0" xmlns="http://www.w3.org/2000/svg"
 width="909.000000pt" height="909.000000pt" viewBox="0 0 909.000000 909.000000"
 preserveAspectRatio="xMidYMid meet">
<metadata>
Created by potrace 1.11, written by Peter Selinger 2001-2013
</metadata>
<g transform="translate(0.000000,909.000000) scale(0.100000,-0.100000)"
fill="#000000" stroke="none">
<path d="M2688 8342 l-48 -3 0 -235 0 -234 235 0 235 0 0 238 0 237 -188 0
c-103 0 -208 -1 -234 -3z"/>
<path d="M3579 8310 c0 -19 0 -125 0 -236 l1 -201 -223 -1 c-122 0 -228 -1
-234 -1 -10 -1 -13 -55 -13 -236 l0 -235 235 0 235 0 0 -235 0 -235 235 0
c217 0 235 1 236 18 1 9 2 115 3 234 l1 218 -237 0 -238 0 0 235 0 235 235 0
235 0 0 235 0 235 -37 0 c-21 1 -127 2 -236 3 l-197 2 -1 -35z"/>
<path d="M7804 8331 c-2 -2 -4 -109 -4 -238 l0 -233 235 0 c217 0 235 1 236
18 1 22 1 434 0 447 -1 10 -457 15 -467 6z"/>
<path d="M299 8135 c-4 -1 -3 -459 1 -464 3 -5 110 -8 238 -8 l232 0 0 237 0
237 -235 -1 c-129 0 -235 0 -236 -1z"/>
<path d="M8280 7565 l0 -235 43 -1 c142 -2 418 0 424 4 5 3 8 108 7 234 l0
228 -237 3 -237 2 0 -235z"/>
<path d="M6799 7636 c-4 -94 0 -448 5 -454 4 -4 111 -7 237 -7 l229 0 0 236 0
236 -235 1 c-168 0 -235 -4 -236 -12z"/>
<path d="M4990 7223 l0 -233 -235 0 -235 0 -1 -67 c0 -38 0 -138 0 -223 0 -85
-3 -159 -7 -165 -4 -6 -68 -10 -156 -10 l-150 0 -82 -305 c-45 -168 -103 -386
-129 -485 -26 -99 -57 -211 -67 -250 -10 -38 -32 -119 -48 -180 -15 -60 -60
-228 -99 -373 -39 -145 -71 -268 -71 -273 0 -5 77 -10 172 -11 l172 -3 1 -220
c0 -121 -1 -225 -3 -232 -2 -8 -69 -11 -234 -11 -126 0 -232 -3 -235 -5 -4 -5
-42 -141 -108 -392 -51 -192 -83 -313 -96 -360 -6 -22 -14 -50 -18 -63 -4 -14
-84 291 -227 863 l-221 885 328 0 329 0 -2 232 -3 232 -458 1 c-253 0 -461 -4
-464 -9 -3 -4 -5 -107 -5 -227 l1 -219 -42 -1 c-47 -1 -408 0 -419 0 -5 1 -8
105 -8 231 l0 230 -235 0 -236 0 1 -197 c0 -109 1 -212 0 -228 l0 -30 -227 1
c-126 1 -231 2 -234 3 -3 0 -5 98 -5 217 1 119 -1 220 -4 225 -4 5 -110 9
-238 10 l-232 1 -2 231 -3 232 -235 0 -235 -1 -3 -467 -2 -467 349 0 349 0
133 -537 c73 -296 134 -532 137 -525 3 9 60 12 236 12 l231 0 0 -232 0 -233
-181 -5 -180 -5 67 -270 c114 -462 160 -649 164 -671 3 -11 32 -131 65 -265
72 -290 185 -745 310 -1253 50 -204 93 -372 96 -375 3 -3 433 -6 955 -6 l950
0 9 35 c5 19 21 82 35 140 15 58 33 132 41 165 9 33 17 67 19 75 2 8 40 157
84 330 44 173 140 552 213 842 73 289 134 526 135 524 2 -2 67 -256 233 -911
233 -922 302 -1190 307 -1195 10 -10 1856 -5 1868 5 7 5 49 152 95 325 45 173
90 344 100 380 11 36 21 76 24 90 3 14 34 133 69 265 36 132 93 346 127 475
34 129 88 334 120 455 49 183 185 699 367 1385 19 74 53 200 74 280 21 80 50
188 64 240 13 52 46 176 72 275 l48 180 325 3 c178 1 326 6 329 11 5 7 6 1380
2 1402 -1 3 -96 5 -212 5 -116 -1 -215 2 -221 5 -6 4 -10 90 -10 233 l0 226
-236 -2 -237 -3 0 -225 c1 -124 -2 -227 -6 -230 -4 -3 -125 -5 -268 -4 l-261
1 0 -237 0 -236 -235 0 -235 1 0 235 0 236 -310 0 -310 0 0 -708 0 -709 306 5
c168 2 307 6 310 9 3 3 6 109 6 236 l0 231 234 0 234 0 0 -235 0 -235 -229 0
-228 0 -33 -122 c-172 -657 -281 -1069 -290 -1098 -5 -19 -43 -161 -84 -315
-41 -154 -75 -276 -75 -271 -1 4 -49 196 -107 425 -58 229 -107 423 -109 431
-1 8 -50 202 -108 430 -58 228 -154 604 -212 835 -58 231 -144 569 -191 752
-46 182 -84 333 -84 335 0 2 -114 4 -252 3 -139 0 -259 1 -265 3 -10 3 -13 58
-13 228 l0 224 28 1 c15 0 120 1 235 1 l207 1 0 236 0 236 -235 1 -235 0 0
-233z m0 -938 l0 -232 228 0 227 0 3 -234 2 -234 -222 1 c-123 1 -226 2 -230
3 -3 0 -6 103 -6 227 0 124 -3 228 -7 232 -4 4 -97 8 -208 8 -111 1 -214 2
-230 3 l-27 1 0 229 1 229 235 0 234 0 0 -233z m3281 226 c3 -1 6 -104 6 -231
-1 -202 -2 -230 -16 -231 -19 -1 -385 -1 -423 0 l-28 1 0 233 0 232 227 -2
c126 -1 231 -2 234 -2z m-3281 -1618 c0 -215 -1 -233 -17 -234 -21 -1 -434 -1
-445 0 -12 1 -10 459 2 463 6 2 111 3 235 3 l225 0 0 -232z m-2349 -288 c4
-222 0 -418 -9 -424 -8 -5 -425 -7 -453 -2 -3 1 -5 103 -5 229 0 172 3 228 13
232 7 3 111 5 233 5 l220 0 1 -40z m-1 -1321 l0 -234 -90 -1 c-49 0 -119 0
-155 0 -36 0 -101 0 -145 0 l-80 1 0 234 0 234 235 0 235 0 0 -234z"/>
<path d="M1707 7363 c-2 -5 -3 -111 -3 -237 l1 -229 210 1 c116 0 222 1 236 1
l26 1 0 235 0 235 -233 0 c-128 0 -235 -3 -237 -7z"/>
<path d="M295 6972 c1 -125 4 -232 7 -237 5 -8 361 -12 456 -6 9 1 12 55 12
236 l0 235 -237 0 -238 0 0 -228z"/>
<path d="M2641 6990 c-5 -4 -8 -408 -2 -457 1 -8 59 -11 219 -11 119 0 224 -1
233 -1 14 -1 15 -28 15 -222 -1 -121 2 -226 6 -232 5 -9 73 -12 233 -12 l225
0 0 235 0 236 -227 0 -228 0 -3 232 c-2 175 -5 232 -15 233 -37 5 -450 3 -456
-1z"/>
<path d="M2181 6515 c-4 -5 -7 -113 -7 -240 l1 -230 232 -2 231 -2 -1 242 -2
242 -223 0 c-138 0 -227 -4 -231 -10z"/>
<path d="M1234 6041 c-2 -2 -4 -107 -4 -233 l0 -228 237 2 238 3 0 229 0 230
-233 0 c-128 1 -235 -1 -238 -3z"/>
</g>
</svg>
